<svg width="27" height="21" viewBox="0 0 27 21" fill="none" xmlns="http://www.w3.org/2000/svg">
<g clip-path="url(#clip0)">
<path d="M13.438 13.6024C13.3967 12.9165 13.2317 12.2728 12.9223 11.6818C12.6232 11.0908 12.1901 10.6476 11.6435 10.3416C11.1794 10.0989 10.7153 9.99335 10.2512 10.0356C9.7871 10.0672 9.37458 10.2255 9.01361 10.521C8.65265 10.8059 8.39482 11.1964 8.24012 11.6712L7.62133 13.7607C7.5182 14.1511 7.33256 14.4255 7.0541 14.5838C6.77564 14.7421 6.39406 14.816 5.90933 14.816H5.38336C4.91927 14.816 4.57893 14.7843 4.34173 14.6999C4.10452 14.626 3.91888 14.4783 3.7745 14.2461C3.63011 14.014 3.51667 13.6446 3.41354 13.1486C3.40322 13.1064 3.39291 13.0537 3.39291 13.0114C3.3826 12.9692 3.3826 12.9165 3.37228 12.8743L3.12477 11.4391C3.02163 11.4074 2.9185 11.3758 2.82568 11.3441H2.81537L2.79474 11.3336C2.77412 11.323 2.74318 11.3124 2.70192 11.3019C2.49566 11.2175 2.2894 11.1225 2.08313 10.9959C1.8253 10.8481 1.5881 10.6793 1.36121 10.4893L1.4334 10.8903L1.8253 13.1908C1.96969 14.0562 2.18626 14.7315 2.45441 15.2275C2.73286 15.7235 3.10414 16.0823 3.57855 16.2934C4.05296 16.515 4.65112 16.6205 5.38336 16.6205H5.90933C6.73439 16.6205 7.3635 16.4622 7.81728 16.1562C8.07511 15.9768 8.29169 15.7446 8.47732 15.4491L10.5812 16.5361C10.9319 16.7155 11.2722 16.7999 11.6125 16.7893C11.9529 16.7682 12.2623 16.6521 12.5407 16.4411C12.8192 16.2195 13.0358 15.9346 13.1802 15.5652C13.3864 14.9426 13.4792 14.2989 13.438 13.6024ZM11.9838 14.8793C11.9529 14.9954 11.9116 15.0798 11.8704 15.1431C11.8291 15.2064 11.7776 15.2381 11.7157 15.2381C11.6538 15.2381 11.5713 15.217 11.4682 15.1642L9.04455 13.9084L9.45708 12.5788C9.56021 12.2939 9.69428 12.0617 9.86961 11.8823C10.0449 11.7029 10.2306 11.5974 10.4368 11.5552C10.6431 11.513 10.8494 11.5446 11.0556 11.629C11.3547 11.7662 11.6125 12.0195 11.8188 12.3783C12.0251 12.7371 12.1488 13.1486 12.1798 13.6024C12.2313 14.0667 12.1591 14.4888 11.9838 14.8793Z" fill="#979797"/>
<path d="M23.4522 7.95682L25.3189 7.96737V6.58496H23.4522H22.7922H20.8946V7.94627L23.4522 7.96737V7.95682Z" fill="#979797"/>
<path d="M26.6081 12.3047L25.484 9.63489L24.0401 10.363L25.154 12.9801C25.3705 13.4655 25.453 13.8349 25.4118 14.0882C25.3705 14.352 25.2365 14.5208 25.0096 14.6263C24.7827 14.7213 24.4733 14.7741 24.0814 14.7741H21.4206H21.2556H20.5646L20.0592 13.3284C19.7911 12.5686 19.5023 11.9354 19.2136 11.4289C18.9145 10.9223 18.5638 10.5319 18.141 10.2681C17.7285 9.99368 17.2334 9.8565 16.6765 9.84594C16.0783 9.84594 15.5524 10.0359 15.0883 10.4052C14.6242 10.7746 14.2735 11.26 14.0363 11.8404C13.7991 12.4314 13.7063 13.0434 13.7476 13.6871C13.7991 14.6263 14.1085 15.3439 14.6654 15.8294C15.2223 16.3148 15.9855 16.5575 16.9446 16.5575H19.523L19.5642 16.663C19.6983 17.1273 19.6673 17.4861 19.4817 17.75C19.2857 18.0138 18.8732 18.2565 18.2235 18.4676C17.5738 18.6786 16.5631 18.9213 15.1708 19.1851C15.1192 19.1957 15.0161 19.2168 14.8717 19.259L15.1605 21.0002C15.2017 20.9897 15.2533 20.9791 15.3152 20.9791C15.3667 20.9686 15.4183 20.9686 15.4699 20.958C17.1303 20.6414 18.4091 20.2826 19.3064 19.9027C20.2036 19.5228 20.7915 19.0268 21.0802 18.4253C21.3174 17.9294 21.3587 17.3067 21.1834 16.5786H21.2762H21.4412H24.102C24.8549 16.5786 25.4943 16.4098 26.01 16.0615C26.5359 15.7133 26.8556 15.2173 26.9897 14.563C27.0825 13.8982 26.9691 13.149 26.6081 12.3047ZM16.924 14.7741C16.3465 14.7741 15.9443 14.6791 15.7071 14.4892C15.4699 14.2992 15.3255 13.9826 15.2945 13.55C15.2739 13.2334 15.3152 12.9168 15.408 12.6319C15.5111 12.3364 15.6658 12.1042 15.8824 11.9143C16.099 11.7349 16.3568 11.6399 16.6765 11.6399C17.1097 11.6399 17.4706 11.8193 17.7388 12.1676C18.0069 12.5158 18.2854 13.1067 18.5844 13.9299L18.8835 14.7741H16.924Z" fill="#979797"/>
<path d="M3.12497 2.42714V0.21106L5.20824 0.232165V2.42714H3.12497Z" fill="#979797"/>
<path d="M3.33126 0.422111L5.002 0.443216V2.21608H3.33126V0.422111ZM2.91873 0V0.422111V2.21608V2.63819H3.33126H5.002H5.41453V2.21608V0.443216V0.0211055H5.002L3.34157 0H2.91873Z" fill="white"/>
<path d="M10.5299 8.04102C10.3443 8.58976 9.99362 9.03298 9.45733 9.38122C8.92105 9.72946 8.14756 10.0566 7.12655 10.3837C6.99248 10.4154 6.8584 10.4576 6.72433 10.4998C6.59026 10.542 6.45619 10.5842 6.32212 10.6264C6.10554 10.6898 5.88896 10.7425 5.6827 10.7847C5.2908 10.8692 4.91952 10.9008 4.55856 10.9008C4.40386 10.9008 4.25947 10.8903 4.11509 10.8797C3.74381 10.8481 3.39316 10.7636 3.06314 10.637C3.0322 10.6264 3.00126 10.6159 2.97032 10.6053C2.78468 10.5315 2.60936 10.447 2.43404 10.3521C1.96994 10.0883 1.57804 9.74001 1.24802 9.33901C1.20676 9.2968 1.17582 9.24403 1.14488 9.20182C0.752981 8.67418 0.453897 8.04102 0.247633 7.29177C-0.123643 5.8777 -0.0720767 4.28424 0.422958 2.52193L1.91837 3.00735C1.76368 3.54554 1.66054 4.06263 1.60898 4.55861C1.52647 5.25509 1.5471 5.93047 1.68117 6.54253C1.85649 7.33398 2.18652 7.94604 2.67124 8.38926C2.81562 8.51589 2.97032 8.63197 3.13533 8.72695C3.3416 8.84303 3.55818 8.938 3.79538 9.00132C4.0429 9.06464 4.31104 9.0963 4.57918 9.0963C4.83701 9.0963 5.09484 9.06464 5.38362 9.01187C5.54863 8.98022 5.71364 8.938 5.87865 8.88524C6.00241 8.84303 6.11585 8.80082 6.2293 8.76916C6.33243 8.7375 6.44588 8.7164 6.56963 8.69529C7.3225 8.45258 7.87941 8.25207 8.24038 8.08323C8.60134 7.91439 8.82823 7.71388 8.94167 7.46062C9.04481 7.2179 9.03449 6.86966 8.90042 6.41589C8.75604 6.00434 8.18881 4.47419 7.19874 1.84655L8.60134 1.11841C9.57078 3.65107 10.1586 5.23398 10.3855 5.8777C10.6537 6.77469 10.7052 7.49228 10.5299 8.04102Z" fill="#979797"/>
</g>
<defs>
<clipPath id="clip0">
<rect width="27" height="21" fill="white"/>
</clipPath>
</defs>
</svg>
